<svg xmlns="http://www.w3.org/2000/svg" style="display: none;">
                            <symbol id="report" viewBox="0 0 1300 1300"><title>report</title><path d="m240 548.667969c0 5.519531-4.476562 10-10 10s-10-4.480469-10-10c0-5.523438 4.476562-10 10-10s10 4.476562 10 10zm0 0"/><path d="m520 548.667969c0 5.519531-4.476562 10-10 10s-10-4.480469-10-10c0-5.523438 4.476562-10 10-10s10 4.476562 10 10zm0 0"/><path d="m480 258.667969h60v220h-60zm0 0"/><path d="m380 548.667969c0 5.519531-4.476562 10-10 10s-10-4.480469-10-10c0-5.523438 4.476562-10 10-10s10 4.476562 10 10zm0 0"/><path d="m240 548.667969c0 5.519531-4.476562 10-10 10s-10-4.480469-10-10c0-5.523438 4.476562-10 10-10s10 4.476562 10 10zm0 0"/><path d="m100 548.667969c0 5.519531-4.476562 10-10 10s-10-4.480469-10-10c0-5.523438 4.476562-10 10-10s10 4.476562 10 10zm0 0"/><path d="m200 118.667969h60v360h-60zm0 0"/><path d="m340-1.332031h60v480h-60zm0 0"/><path d="m60 358.667969h60v120h-60zm0 0"/><path d="m60 548.667969c.035156-3.414063.65625-6.796875 1.839844-10h-51.839844c-5.523438 0-10 4.476562-10 10 0 5.519531 4.476562 10 10 10h51.839844c-1.183594-3.203125-1.804688-6.589844-1.839844-10zm0 0"/><path d="m118.160156 538.667969c2.457032 6.4375 2.457032 13.558593 0 20h83.679688c-2.457032-6.441407-2.457032-13.5625 0-20zm0 0"/><path d="m100 548.667969c0 5.519531-4.476562 10-10 10s-10-4.480469-10-10c0-5.523438 4.476562-10 10-10s10 4.476562 10 10zm0 0"/><path d="m380 548.667969c0 5.519531-4.476562 10-10 10s-10-4.480469-10-10c0-5.523438 4.476562-10 10-10s10 4.476562 10 10zm0 0"/><path d="m341.839844 558.667969c-2.457032-6.441407-2.457032-13.5625 0-20h-83.679688c2.457032 6.4375 2.457032 13.558593 0 20zm0 0"/><path d="m481.839844 558.667969c-2.457032-6.441407-2.457032-13.5625 0-20h-83.679688c2.457032 6.4375 2.457032 13.558593 0 20zm0 0"/><path d="m520 548.667969c0 5.519531-4.476562 10-10 10s-10-4.480469-10-10c0-5.523438 4.476562-10 10-10s10 4.476562 10 10zm0 0"/><path d="m590 538.667969h-51.839844c2.457032 6.4375 2.457032 13.558593 0 20h51.839844c5.523438 0 10-4.480469 10-10 0-5.523438-4.476562-10-10-10zm0 0"/></symbol>
                          </svg>